<svg xmlns="http://www.w3.org/2000/svg" viewBox="0 0 500 500">
    <clipPath id="a">
        <path d="M0 0h1024v1024H0z" />
    </clipPath>
    <g clip-path="url(#a)" transform="translate(-73.097 -72.266) scale(.63142)">
        <path fill="#FEFEFE"
            d="M510.98 117.986c6.906 1.072 13.81 4.607 20.257 7.267l24.325 9.958 68.938 28.223 181 74.001 53.235 21.695 2.964 28.945c1.452 12.349 3.133 24.861 3.663 37.281 1.444 33.794-.347 67.829-4.311 101.394-6.51 55.125-19.735 110.148-40.951 161.5-2.365 5.723-.912 13.787-.681 19.944.46 12.247.829 26.719-3.952 38.286-4.48 10.837-12.736 19.954-23.376 25.029-1.791.854-5.629 1.276-6.996 2.43-1.22 1.031-2.545 3.485-3.499 4.819l-6.812 9.085c-11.491 14.741-22.799 29.496-35.351 43.372-36.909 40.803-78.094 78.518-122.272 111.302-32.38 24.03-66.256 45.76-103.607 61.233l-2.054.394c-50.676-21.252-96.124-53.319-138.26-88.258-25.609-21.235-50.308-43.779-72.974-68.163l-40.531-45.977-10.554-13.934c-2.033-2.811-4.001-6.108-6.517-8.48-1.98-1.866-5.039-2.898-7.499-4.064-3.184-1.511-6.146-3.311-8.915-5.495-18.714-14.76-20.671-36.735-20.771-58.915-.022-4.957.83-10.589.2-15.451l-.097-.657c-.43-3.132-1.898-6.061-3.112-8.958l-3.679-9.988-16.91-54.567c-17.38-63.036-25.999-129.098-22.453-194.487 1.259-23.214 3.651-46.407 8.236-69.225 2.611-1.922 6.437-3.009 9.458-4.222l18.858-7.597 74.52-30.208 170-69.006 70.48-28.506Z" />
        <path fill="#16313D"
            d="m510.972 164.75 1.531-.434c7.766 2.094 16.043 6.354 23.503 9.444l46.556 19.228 154.898 63.429 62.796 25.644c2.952 1.205 16.982 6.217 18.194 7.829 2.023 17.384 2.501 34.935 2.566 52.423.111 29.898-1.661 60.115-6.748 89.612l-6.95 33.886-3.155 11.732c-.348 1.329-1.192 3.524-1.197 4.849-.002.403.714 1.844.859 2.233l2.46 7.125c2.057 6.895 3.22 14.238 4.256 21.343 4.529 31.086 3.471 63.162 1.312 94.407-.702 10.143-1.04 20.325-3.749 30.182-2.506 9.116-10.44 19.142-18.802 23.569-6.805 3.603-14.908 5.626-22.221 8.071l-25.733 8.579c-6.488 1.973-13.895 3.201-19.35 7.446-6.013 4.679-10.494 11.035-15.692 16.554l-32.853 33.316c-24.174 22.875-49.847 44.297-76.348 64.414-25.988 19.727-52.089 37.852-80.558 53.821-.83.4-4.057 2.329-4.738 2.285-1.646-.107-10.49-5.532-12.475-6.621-28.414-15.59-54.78-35.389-80.17-55.442-25.262-19.952-49.829-40.631-73.084-62.914l-30.988-31.721-9.757-10.719c-1.527-1.696-3.188-3.98-5.043-5.255-1.529-1.05-3.763-1.315-5.552-1.71l-12.207-2.671-27.504-7.663c-14.47-4.209-26.424-8.083-34.004-22.15-2.167-4.021-3.875-8.33-4.725-12.826-1.215-6.431-1.463-13.181-1.811-19.71l-1.245-26.279c-1.073-25.5-3.133-51.145-.571-76.627.515-5.13 1.338-10.207 2.399-15.251.725-3.446 1.741-6.84 2.772-10.205.552-1.801 1.487-4.085 1.296-5.973-.375-3.709-2.048-7.629-2.781-11.346l-4.859-29.34c-5.968-40.048-7.718-79.736-6.316-120.156.351-10.098.227-22.24 3.123-31.937L510.972 164.75Z" />
        <path fill="#FEFEFE"
            d="M265.295 392.672c1.82-.527 4.971-.283 6.924-.339 9.29-.269 18.69.326 27.972.695-2.663 4.169-5.405 8.325-7.721 12.7-1.673 3.158-2.911 6.774-5.017 9.655-1.914.299-3.966-.16-5.874-.416-11.955-1.493-23.5-2.731-35.066-6.297 1.063-3.13 2.097-5.973 4.083-8.656 3.842-5.191 8.64-6.413 14.699-7.342Zm475.784-1.993c9.773.325 18.067 1.623 27.475 4.316 3.504 1.003 9.098 3.274 10.662 6.799.687 1.547.569 3.966-.072 5.513-1.78 4.292-9.534 6.457-13.481 7.801l-14.924 4.687c-1.566-.945-3.156-1.972-4.839-2.692-1.079-.462-3.381-1.01-4.122-1.835-1.341-1.493-2.36-4.466-3.343-6.268l-7.567-12.805c2.959-2.686 6.264-4.712 10.211-5.516Zm-241.293-95.963c18.017-1.008 36.205.647 54.165 1.944 13.786.995 27.641 1.632 41.299 3.833l29.75 5.962c5.929 1.352 12.45 2.582 17.877 5.486 6.572 3.519 11.654 9.441 16.774 14.738 24.746 25.601 45.222 54.949 66.018 83.743l-6.798-1.124c-3.431-5.765-7.743-11.228-11.712-16.645-14.379-19.621-30.04-37.528-46.964-54.972-6.185-6.375-12.646-14.392-20.702-18.391-6.261-3.108-14.007-3.822-20.823-5.067-31.711-5.791-63.55-9.278-95.795-9.892-27.334-.672-54.972.883-82.09 4.284-14.343 1.799-28.544 3.845-42.623 7.195-6.131 1.459-12.141 2.076-17.629 5.445-6.595 4.048-12.103 10.417-17.409 15.969l-29.862 34.021-14.779 19.255c-5.651 7.827-10.99 17.942-18.538 23.962 3.098-6.877 7.172-13.124 11.132-19.526 14.123-22.836 30.574-43.773 48.373-63.832 7.251-8.172 14.28-16.099 24.3-20.901 6.399-3.066 14.382-4.017 21.314-5.322 31.451-5.92 62.838-8.296 94.722-10.165ZM769.949 454.25l1.801-.425c2.088 2.77 3.239 6.309 4.047 9.65 2.822 11.658 2.914 24.176 1.994 36.056-.392 5.067-.925 11.673-3.841 15.998-2.377 3.524-6.083 5.857-9.886 7.563-13.585 6.094-29.847 8.485-44.356 11.349l-42.777 8.485-8.728 1.31c5.545-10.819 11.562-21.581 19.273-31.037 12.156-14.907 27.87-26.81 43.94-37.182 12.51-8.075 25.119-15.291 38.533-21.767Z" />
        <path fill="#16313D"
            d="m760.848 470.106-4.196 4.657c.423.659 7.322 2.123 8.674 2.517-3.063-.092-7.742-.558-10.274 1.22l.198.613c3.145.73 5.448 2.015 7.415 4.634 3.757 5.001 4.644 13.055 3.53 19.097l-.131.656c-.426 2.342-1.219 4.408-2.468 6.454-.509.834-1.171 2.133-1.842 2.777-1.386 1.331-5.364 2.346-7.21 2.97-15.348 5.18-31.066 7.904-46.794 11.55l-16.847 3.683c2.335-6.282 4.577-11.101 8.818-16.401 10.462-13.072 26.044-22.814 40.013-31.754 6.94-4.442 13.732-8.978 21.114-12.673Z" />
        <path fill="#FEFEFE"
            d="M250.248 449.98c10.867 5.856 21.967 11.145 32.502 17.643 33.816 20.858 59.42 49.961 81.438 82.585l-5.377-1.366-86.975-22.717c-9.77-2.796-18.823-6.906-23.775-16.251-3.357-6.334-3.596-13.746-3.589-20.755.015-13.494 1.712-26.246 5.776-39.139Z" />
        <path fill="#16313D"
            d="M259.103 465.061c19.96 11.16 38.865 24.544 55.763 39.983 10.126 9.252 19.331 19.329 28.521 29.492l-35.183-8.84c-10.585-2.643-21.051-4.721-31.362-8.396-4.743-1.69-10.146-3.647-13.677-7.379-6.889-7.279-5.291-18.666-4.863-27.871l.801-16.989Z" />
        <path fill="#E62C2C"
            d="M510.013 212.859c.565-.173.829-.304 1.487-.222 3.407.425 8.045 2.991 11.265 4.389l15.054 6.12 74.583 29.954 24.423 9.819c3.935 1.577 7.874 3.446 11.891 4.759l-.167 21.869c-.033 3.838.274 8.081-.422 11.844-15.784-5.895-32.11-9.077-48.692-11.802-29.488-4.847-59.319-7.145-89.196-7.099l.044-55.745c-.046-3.958.972-10.278-.27-13.886Z" />
        <path fill="#E60200"
            d="m648.716 267.678 127.475 53.778-1.256 65.374c-12.779-3.592-26.768-8.113-40.171-5.929-2.548.415-4.853 1.22-7.211 2.243-.602.261-3.067 1.628-3.448 1.599-.31-.023-6.652-8.786-7.245-9.558-14.995-19.519-31.147-38.466-48.271-56.144-5.977-6.171-12.495-14.074-20.462-17.65.696-3.763.389-8.006.422-11.844l.167-21.869Z" />
        <path fill="#EF4B48"
            d="M510.41 805.431c-6.2-3.125-11.821-7.439-17.429-11.494l-29.872-22.809-51.293-40.469c-24.34-20.494-47.099-42.638-69.003-65.689l167.833 11.016-.236 129.445Z" />
        <path fill="#E60200"
            d="M510.646 675.986c48.405-.01 97.641-1.471 145.675-7.781 8.494-1.115 17.212-1.365 25.513-3.55-12.906 15.118-27.707 28.45-42.379 41.809l-33.78 30.776-58.735 45.005-23.764 16.926c-3.6 2.379-7.216 5.099-11.176 6.838-.528-.18-1.089-.333-1.59-.578l.236-129.445Z" />
        <path fill="#EF4B48"
            d="M510.013 212.859c1.242 3.608.224 9.928.27 13.886l-.044 55.745c-35.139.136-69.723 3.54-104.217 10.196-11.706 2.259-24.893 4.015-34.991 10.673-5.988 3.948-10.708 9.688-15.488 14.963l-24.263 29.011-13.646 18.954-8.786 12.963c-.82 1.157-2.294 3.598-3.423 4.376-.925.639-7.95-.925-9.646-1.066-7.253-.603-14.824-.942-22.098-.795-8.265.168-14.988 1.105-22.628 4.359l-.082-66.32 259.042-106.945Z" />
        <path fill="#FEFEFE"
            d="M492.391 310.24c33.154-.081 66.115-.003 99.109 3.745 13.978 1.588 28.64 3.57 42 8.106 9.205 3.125 16 11.762 21.944 19.028 16.114 19.701 28.544 41.267 40.02 63.892l-160.391-14.925-203.991 14.13c1.379-5.638 5.073-11.571 7.87-16.666 7.084-12.905 14.901-24.968 23.435-36.948 5.939-8.336 11.959-16.546 19.173-23.852 4.734-4.794 14.012-6.034 20.373-7.406 29.633-6.392 60.217-8.468 90.458-9.104Z" />
        <path fill="#FEFEFE"
            d="m489.513 403.246 197.109 13.236-114.114 80.132.242.533 91.426-53.909 30.26-18.124c2.545-1.532 8.207-6.076 11.14-6.09 4.835-.022 10.138.99 14.969 1.526 6.605.734 13.136 1.373 19.456 3.569 10.669 3.707 19.877 12.279 27.548 20.294l-26.706 13.191c-20.565 11.407-41.111 25.831-56.513 43.733-13.819 16.063-24.687 35.87-34.064 54.828 23.421-2.903 46.384-7.622 69.52-12.188 13.739-2.712 28.171-4.712 41.428-9.308 6.384-2.213 12.758-4.838 17.416-9.909 9.665-10.523 6.38-47.85 5.774-62.375l.569.499c14.415 14.06 16.467 37.494 16.918 56.509.684 28.866-4.014 59.793-12.575 87.289-1.624 5.216-3.03 11.793-6.98 15.815-4 4.072-10.538 6.08-15.751 8.162-14.842 5.93-30.295 9.166-45.889 12.375-42.976 8.845-86.541 13.08-130.28 15.729l-75.908 2.707-67.034-1.808c-55.421-2.534-111.865-8.119-165.959-20.841-12.943-3.044-28.165-5.774-39.415-13.16-2.651-4.218-4.137-9.402-5.698-14.107-5.989-18.052-9.802-36.669-11.835-55.575-3.214-29.891-5.41-64.338 10.482-91.229 1.982-3.354 4.586-6.371 7.023-9.397-4.068 15.749-8.035 34.539-5.79 50.767l.129.88c.577 4.137 1.532 7.409 3.817 10.946 3.884 6.014 8.997 9.765 15.385 12.842 14.188 6.835 30.997 9.876 46.235 13.473l72.548 15.995c-11.559-21.408-22.595-43.334-38.157-62.206-11.914-14.448-26.554-26.498-42.208-36.682-11.774-7.659-24.393-14.677-37.797-18.961 12.472-11.112 30.279-16.989 46.089-21.403 2.813-.785 6.153-2.105 9.024-2.435 4.396-.505 34.449 18.686 39.959 22.028L447 499.973l.709-.223-115.665-83.259 157.469-13.245Z" />
        <path fill="#16313D"
            d="M288.935 603.568c5.209-.271 10.438.612 15.565 1.411l20.734 3.252c11.369 1.81 24.213 2.457 34.898 6.698 4 1.587 7.258 4.407 10.853 6.707 3.933 2.517 8.241 4.444 12.765 5.602 8.473 2.17 17.383 2.555 26.084 2.875l32.949.658 87.845.592 80.304-1.028c8.832-.464 17.98-.571 26.697-2.141 8.787-1.582 14.676-6.118 22.162-10.383 5.882-3.352 14.186-3.954 20.754-5.296l28.303-5.115c7.995-1.271 17.816-3.411 25.74-1.211l.912.265c4.959 1.414 10.542 3.756 14.821 6.643 3.926 2.649 7.373 5.939 11.284 8.616l.452.304-15.914 4.598c-44.137 13.441-92.51 12.284-138.193 14.143l-74.452 2.879-44.898-.215-91.215-2.343-47.644-2.539c-28.884-2.713-57.531-7.711-85.443-15.601 5.894-9.827 13.667-16.166 24.637-19.371Z" />
        <path fill="#16313D"
            d="M358.902 511.837c51.246 5.99 102.438 7.029 153.965 6.714l73.623-.602 77.595-4.482-34.002 56.486c-6.855 9.038-15.348 20.319-25.159 26.191-3.929 2.351-9.223 2.856-13.68 3.709l-13.438 2.797c-21.293 4.266-43.408 7.466-65.172 7.451-31.02-.021-61.359-6.013-91.197-13.954-6.655-1.771-11.164-4.696-16.05-9.533-11.978-11.857-19.616-27.937-27.834-42.472l-18.651-32.305Z" />
    </g>
</svg>