<?xml version="1.0" standalone="no"?>
<!DOCTYPE svg PUBLIC "-//W3C//DTD SVG 20010904//EN"
 "http://www.w3.org/TR/2001/REC-SVG-20010904/DTD/svg10.dtd">
<svg version="1.0" xmlns="http://www.w3.org/2000/svg"
 width="700.000000pt" height="700.000000pt" viewBox="0 0 700.000000 700.000000"
 preserveAspectRatio="xMidYMid meet">
<metadata>
Created by potrace 1.14, written by Peter Selinger 2001-2017
</metadata>
<g transform="translate(0.000000,700.000000) scale(0.100000,-0.100000)"
fill="#000000" stroke="none">
<path d="M2157 6007 l-1337 -552 -11 -35 c-17 -52 -24 -670 -10 -864 19 -264
37 -391 108 -788 3 -16 -4 -65 -16 -111 -32 -126 -40 -214 -41 -432 0 -231 26
-778 41 -843 23 -105 87 -192 176 -240 57 -30 334 -114 485 -147 l76 -17 95
-101 c171 -184 390 -401 512 -508 243 -214 571 -476 775 -620 175 -124 462
-299 491 -299 39 0 420 245 666 429 386 286 575 451 928 805 282 284 292 292
350 310 33 10 155 49 272 88 234 76 285 103 345 183 64 84 79 162 99 505 20
358 -1 688 -58 889 l-26 94 26 106 c40 160 84 399 104 561 15 120 18 217 17
560 0 245 -5 427 -10 445 -13 36 101 -13 -1084 471 -520 212 -1060 434 -1200
492 -400 166 -414 172 -425 171 -5 -1 -612 -249 -1348 -552z m1645 -612 c123
-9 268 -20 323 -26 134 -14 462 -82 522 -109 72 -32 260 -230 449 -475 89
-115 284 -382 284 -390 0 -3 -11 -5 -24 -5 -16 0 -31 12 -51 43 -158 239 -577
708 -675 755 -53 25 -318 73 -571 103 -222 26 -679 36 -899 20 -324 -24 -718
-89 -802 -132 -57 -29 -111 -82 -272 -264 -156 -176 -245 -287 -354 -442 -70
-99 -92 -124 -92 -105 0 5 30 58 66 118 196 325 527 717 654 777 93 44 389 93
730 122 348 28 423 30 712 10z m263 -145 c249 -22 470 -62 539 -97 72 -37 196
-180 319 -368 70 -107 202 -343 195 -350 -2 -2 -89 5 -193 15 -105 10 -420 40
-701 66 l-511 47 -689 -47 c-922 -64 -926 -64 -1028 -72 l-89 -7 7 29 c10 41
124 237 217 374 123 182 207 282 260 308 81 40 396 92 678 112 160 11 837 5
996 -10z m1650 -717 c78 -17 100 -26 133 -56 54 -50 16 -94 -126 -141 l-102
-35 -44 20 c-39 17 -50 30 -91 105 -50 93 -50 91 10 120 34 16 107 12 220 -13z
m-4110 -35 c-14 -24 -39 -69 -56 -100 -21 -42 -35 -58 -50 -58 -35 0 -235 31
-286 44 -42 11 -48 16 -45 37 4 37 34 72 82 97 41 20 58 22 213 22 l168 0 -26
-42z m2623 -113 c442 -29 805 -55 807 -57 2 -2 -216 -158 -486 -347 -443 -312
-551 -390 -456 -333 17 11 172 102 342 202 171 100 415 245 542 322 l233 140
132 -17 c73 -10 157 -26 185 -37 57 -21 149 -85 202 -141 l34 -36 -107 -50
c-417 -196 -676 -441 -871 -822 -53 -104 -55 -109 -33 -109 34 0 391 63 647
114 340 69 441 110 484 199 28 61 40 178 34 351 -7 179 -5 181 60 74 118 -194
116 -679 -3 -1117 -47 -172 -67 -209 -129 -243 -64 -35 -230 -91 -366 -123
-967 -226 -2632 -248 -3724 -49 -356 65 -590 130 -637 178 -40 40 -126 367
-152 582 -38 305 -30 519 25 689 25 80 103 225 114 213 2 -2 -5 -49 -17 -103
-16 -72 -22 -137 -22 -230 -1 -117 1 -135 22 -177 42 -86 137 -147 302 -194
108 -31 883 -204 889 -199 7 7 -171 319 -243 425 -155 231 -433 458 -702 575
-44 19 -79 38 -78 42 3 40 317 177 456 199 52 9 40 16 833 -476 154 -95 297
-184 318 -197 102 -64 -5 16 -453 339 -270 194 -486 354 -479 357 35 11 1364
118 1424 114 39 -2 432 -28 873 -58z m-2897 -426 c152 -81 219 -125 339 -220
94 -74 264 -246 351 -354 70 -86 171 -227 166 -231 -6 -6 -812 208 -869 230
-92 37 -145 91 -167 172 -16 56 -13 237 4 337 14 82 30 137 39 137 2 0 64 -32
137 -71z m4483 14 c27 -54 40 -148 39 -283 -1 -165 -12 -213 -63 -261 -55 -52
-174 -87 -535 -158 -380 -75 -365 -72 -365 -63 0 13 86 159 132 224 92 128
275 284 484 411 99 61 275 157 286 157 4 0 14 -12 22 -27z"/>
<path d="M2167 3458 c10 -18 61 -107 113 -198 157 -277 183 -320 236 -384 79
-95 121 -119 292 -160 505 -122 814 -126 1345 -17 81 17 157 36 170 42 33 18
124 107 177 174 53 67 344 545 336 552 -3 3 -166 -4 -363 -16 -600 -36 -1601
-29 -2103 14 -96 8 -186 18 -199 21 l-24 5 20 -33z"/>
<path d="M1496 2664 c-44 -16 -110 -64 -143 -105 -45 -54 -45 -54 94 -88 398
-96 674 -120 1638 -142 442 -10 566 -10 935 5 234 9 544 21 690 27 404 15 601
40 833 104 187 51 178 43 110 94 -32 24 -83 55 -113 70 -78 36 -190 35 -420
-7 -254 -47 -255 -47 -375 -107 -99 -50 -120 -57 -210 -67 -141 -16 -1912 -16
-2047 0 -119 15 -173 32 -253 83 -84 53 -129 67 -280 89 -71 11 -191 28 -265
40 -156 23 -144 23 -194 4z"/>
<path d="M1266 3862 c-3 -21 -6 -91 -6 -157 0 -174 24 -214 151 -261 62 -23
582 -154 588 -148 5 4 -128 143 -234 244 -114 108 -290 240 -441 328 l-52 30
-6 -36z"/>
<path d="M5585 3787 c-209 -130 -282 -184 -365 -267 -56 -55 -94 -103 -109
-137 -14 -29 -22 -55 -19 -58 8 -8 436 91 528 122 105 35 123 56 128 151 5 83
-14 135 -58 160 -39 22 -38 32 3 33 31 0 31 1 7 10 -33 13 -35 16 -20 34 7 8
11 15 9 15 -2 0 -49 -28 -104 -63z"/>
</g>
</svg>
